<svg width="272" height="273" viewBox="0 0 272 273" fill="none" xmlns="http://www.w3.org/2000/svg">
<g clip-path="url(#clip0_1_2)">
<path d="M61.026 220.385C61.026 222.855 61.026 224.834 61.026 227.139C50.7261 227.139 40.6678 227.139 30.0278 227.139C30.0278 225.381 30.0278 223.611 30.0278 221.841C30.0276 180.688 29.9417 139.535 30.0728 98.3828C30.12 83.5649 35.1692 70.4091 45.9847 60.1919C55.8378 50.8838 67.5017 45.6375 81.6147 45.2663C96.7824 44.8674 109.777 49.5516 120.443 59.6797C128.903 67.7137 135.504 77.7732 135.861 89.8332C136.711 118.565 136.802 147.322 136.952 176.07C136.991 183.475 137.498 190.309 142.888 196.197C148.649 202.49 157.576 205.135 166.406 202.307C173.12 200.156 180.921 190.841 180.96 183.958C181.117 155.662 181.025 127.364 181.025 98.7213C171.144 98.7213 161.546 98.7213 150.406 98.7213C166.129 77.7125 181.137 57.659 196.599 37C212.03 57.4077 227.183 77.4477 243 98.3658C232.035 98.3658 222.311 98.3658 212.027 98.3658C212.027 100.562 212.027 102.334 212.027 104.105C212.027 129.93 211.71 155.759 212.117 181.577C212.505 206.131 194.665 228.318 170.189 233.517C141.592 239.592 113.398 221.771 107.056 193.147C106.461 190.458 106.078 187.661 106.071 184.913C106 157.589 106.019 130.265 106.034 102.941C106.038 95.176 104.403 88.1394 98.553 82.407C92.6772 76.6496 85.6554 75.2119 78.1372 76.9824C69.6595 78.9787 64.4589 84.9743 62.1132 93.2243C61.2784 96.1601 61.0751 99.3565 61.0699 102.435C61.0037 141.588 61.0261 180.741 61.026 220.385Z" fill="#4F8FFF"/>
</g>
<defs>
<clipPath id="clip0_1_2">
<rect width="272" height="273" fill="white"/>
</clipPath>
</defs>
</svg>
